<svg viewBox="0 0 24 24" xmlns="http://www.w3.org/2000/svg" fill="#000000"><path d="M22.2819 9.8211a5.9847 5.9847 0 0 0-.5157-4.9108 6.0462 6.0462 0 0 0-6.5098-2.9A6.0651 6.0651 0 0 0 4.9807 4.1818a5.9847 5.9847 0 0 0-3.9977 2.9 6.0462 6.0462 0 0 0 .7427 7.0966 5.98 5.98 0 0 0 .511 4.9107 6.051 6.051 0 0 0 6.5146 2.9001A5.9847 5.9847 0 0 0 13.2599 24a6.0557 6.0557 0 0 0 5.7718-4.2057 5.9847 5.9847 0 0 0 3.989-2.8999 6.051 6.051 0 0 0-.7388-7.0733zM8.7169 22.3151a4.476 4.476 0 0 1-2.7238-.9526L10.606 18.69v-5.698l-4.9333-2.852-1.32 2.2905a4.4684 4.4684 0 0 1 4.3642 10.1136zM3.4697 15.3414a4.4769 4.4769 0 0 1-.5024-2.8427l4.613 2.6669v5.7027l4.9333-2.8519.0048-2.6455-4.6896-2.7093a4.466 4.466 0 0 1-4.3591 2.6808zm-1.0772-5.753a4.476 4.476 0 0 1 2.2215-1.8902l-1.32-2.288 4.931-2.852v5.334l-4.6177 2.6668a4.4684 4.4684 0 0 1-1.2148-1.011zm9.3243-7.5342a4.4769 4.4769 0 0 1 2.7237.9525L10.606 5.6795v5.698l4.9333 2.852 1.32-2.2905a4.4684 4.4684 0 0 1-4.3643-10.1136zm5.2471 6.9735a4.476 4.476 0 0 1 .5025 2.8427l-4.613-2.6669v-5.7027l-4.9333 2.852-.0047 2.6455 4.6895 2.7092a4.466 4.466 0 0 1 4.359-2.6798zm1.0773 5.7531a4.476 4.476 0 0 1-2.2215 1.89l1.32 2.288-4.931 2.852v-5.3339l4.6178-2.6669a4.4684 4.4684 0 0 1 1.2147 1.011zM12.0003 14.819l-2.4332-1.4068v-2.8137l2.4332-1.4067 2.4333 1.4067v2.8137z"/></svg>
